<?xml version="1.0" encoding="UTF-8"?>
<svg width="26px" height="46px" viewBox="0 0 26 46" version="1.1" xmlns="http://www.w3.org/2000/svg" xmlns:xlink="http://www.w3.org/1999/xlink">
    <!-- Generator: Sketch 44.1 (41455) - http://www.bohemiancoding.com/sketch -->
    <title>arrow/right</title>
    <desc>Created with Sketch.</desc>
    <defs></defs>
    <g id="Desktop" stroke="none" stroke-width="1" fill="none" fill-rule="evenodd">
        <g id="Schedule" transform="translate(-1180.000000, -448.000000)" fill="#FEFEFE">
            <g id="arrow/left" transform="translate(1193.000000, 471.000000) scale(-1, 1) translate(-1193.000000, -471.000000) translate(1180.000000, 448.000000)">
                <path d="M25.553391,2.76554694 L23.3198447,0.461107384 C23.0216383,0.15446825 22.6794013,-0.0004 22.2921332,-0.0004 C21.9048651,-0.0004 21.5616275,0.15446825 21.2644217,0.461107384 L0.447009676,21.9392687 C0.148803225,22.2469403 -0.0003,22.6010724 -0.0003,22.9996 C-0.0003,23.3991601 0.148803225,23.7532921 0.447009676,24.0599313 L21.2644217,45.5391251 C21.5616275,45.8457642 21.9048651,45.9996 22.2921332,45.9996 C22.6794013,45.9996 23.0216383,45.8457642 23.3198447,45.5391251 L25.553391,43.2336531 C25.8505968,42.9270139 25.9997,42.5739143 25.9997,42.1743542 C25.9997,41.7747941 25.8505968,41.4216945 25.553391,41.1140229 L7.99623606,22.9996 L25.553391,4.88620951 C25.8505968,4.57853792 25.9997,4.22543831 25.9997,3.82587822 C25.9997,3.42631814 25.8505968,3.07321853 25.553391,2.76554694" id="Fill-1"></path>
            </g>
        </g>
    </g>
</svg>