<?xml version="1.0" encoding="UTF-8"?>
<svg width="193px" height="56px" viewBox="0 0 193 56" version="1.1" xmlns="http://www.w3.org/2000/svg" xmlns:xlink="http://www.w3.org/1999/xlink">
    <!-- Generator: Sketch 45 (43475) - http://www.bohemiancoding.com/sketch -->
    <title>Logo_header_HOZ</title>
    <desc>Created with Sketch.</desc>
    <defs></defs>
    <g id="Symbol" stroke="none" stroke-width="1" fill="none" fill-rule="evenodd">
        <g id="Nav-Bar/Home" transform="translate(-200.000000, -20.000000)" fill="#000000">
            <path d="M242.412553,48.1334468 L214.279404,20 L200,20 L200,75.6511915 L214.044681,75.6511915 L214.044681,71.1991915 L204.452298,71.1991915 L204.452298,24.452 L212.434383,24.452 L242.41166,54.4295745 L242.412553,48.1334468 Z M268.011106,20 L242.411957,20 L242.411957,24.452 L268.011106,24.452 C274.838043,24.452 280.372213,29.9858723 280.372213,36.8122128 C280.372213,41.2633191 278.011574,45.1529362 274.481489,47.3291915 C272.598043,48.4905957 270.387234,49.1724255 268.011106,49.1724255 C265.63617,49.1724255 263.425362,48.4905957 261.541915,47.3291915 C261.369447,47.2228511 261.209191,47.0998298 261.041787,46.9854468 L261.041787,47.3291915 L261.041787,52.1034894 C263.16383,53.0778298 265.522085,53.6247234 268.011106,53.6247234 C273.314426,53.6247234 278.036298,51.1642979 281.117489,47.3291915 C283.431957,44.4484681 284.823915,40.7950638 284.823915,36.8122128 C284.823915,27.5269362 277.296681,20 268.011106,20 L268.011106,20 Z M251.199489,56.9215745 L255.651191,61.3729787 L255.651191,61.3732766 L255.651191,67.6685106 L255.651191,67.6688085 L255.651191,75.6511915 L247.668809,75.6511915 L241.607106,75.6511915 L241.372085,75.6511915 L214.044681,48.3234894 L214.044681,42.0264681 L243.216809,71.1991915 L251.199489,71.1991915 L251.199489,63.2171064 L251.199489,56.9215745 Z M386.263149,65.1085957 L382.22966,65.1085957 L382.22966,62.9284681 L392.694809,62.9284681 L392.694809,65.1085957 L388.661319,65.1085957 L388.661319,75.6464255 L386.263149,75.6464255 L386.263149,65.1085957 Z M371.185447,65.5994894 L368.823617,71.013617 L373.547277,71.013617 L371.185447,65.5994894 Z M374.510298,73.2482553 L367.860298,73.2482553 L366.770383,75.6464255 L364.17234,75.6464255 L369.877191,62.9284681 L372.493404,62.9284681 L378.198553,75.6464255 L375.582043,75.6464255 L374.510298,73.2482553 Z M358.924128,74.0477447 C357.615872,75.3378298 355.926043,75.9374468 354.091149,75.9374468 C349.367191,75.9374468 347.368766,72.6852766 347.350298,69.3782979 C347.332128,66.0534468 349.494085,62.6740851 354.091149,62.6740851 C355.817021,62.6740851 357.452043,63.3282128 358.760298,64.6182979 L357.161617,66.1624681 C356.325787,65.3448085 355.199532,64.9635319 354.091149,64.9635319 C351.020383,64.9635319 349.694255,67.2526809 349.712426,69.3782979 C349.730298,71.4857447 350.947702,73.6843404 354.091149,73.6843404 C355.199532,73.6843404 356.452979,73.2300851 357.288511,72.3942553 L358.924128,74.0477447 Z M332.091191,65.1634043 L332.091191,69.2329362 L335.743106,69.2329362 C337.269404,69.2329362 337.923532,68.2157021 337.923532,67.1981702 C337.923532,66.1806383 337.251532,65.1634043 335.743106,65.1634043 L332.091191,65.1634043 Z M340.95766,75.6464255 L338.105234,75.6464255 L334.398809,71.3951915 L332.091191,71.3951915 L332.091191,75.6464255 L329.693319,75.6464255 L329.693319,62.9102979 C331.709915,62.9102979 333.726809,62.9284681 335.743106,62.9284681 C338.741191,62.9466383 340.321702,64.9450638 340.321702,67.1436596 C340.321702,68.888 339.522511,70.6502128 337.105872,71.1408085 L340.95766,75.4828936 L340.95766,75.6464255 Z M322.046638,75.6464255 L312.526043,75.6464255 L312.526043,62.9284681 L322.046638,62.9284681 L322.046638,65.2542553 L314.906043,65.2542553 L314.906043,68.1793617 L321.791957,68.1793617 L321.791957,70.414 L314.906043,70.414 L314.906043,73.2848936 L322.046638,73.2848936 L322.046638,75.6464255 Z M296.90383,69.7053617 L300.501234,69.7053617 C303.571404,69.7053617 303.553532,65.1997447 300.501234,65.1997447 L296.90383,65.1997447 L296.90383,69.7053617 Z M300.501234,71.9039574 L296.90383,71.9039574 L296.90383,75.6464255 L294.505362,75.6464255 L294.505362,62.9284681 C296.504085,62.9284681 298.502511,62.9102979 300.501234,62.9102979 C306.714851,62.9102979 306.733021,71.9039574 300.501234,71.9039574 L300.501234,71.9039574 Z M352.765915,42.1098723 L347.115277,48.1962979 L353.238043,54.6097872 L353.238043,54.7551489 L350.276596,54.7551489 L344.953021,49.1229787 L344.953021,54.7551489 L342.554851,54.7551489 L342.554851,42.0371915 L344.953021,42.0371915 L344.953021,47.4149787 L349.786,42.0371915 L352.765915,42.0371915 L352.765915,42.1098723 Z M335.235532,53.1564681 C333.927574,54.4462553 332.237745,55.0458723 330.402851,55.0458723 C325.678894,55.0458723 323.68017,51.7937021 323.662298,48.4870213 C323.64383,45.1621702 325.806085,41.7828085 330.402851,41.7828085 C332.128723,41.7828085 333.764043,42.4369362 335.072,43.7270213 L333.473319,45.2711915 C332.637191,44.4535319 331.510936,44.0719574 330.402851,44.0719574 C327.332085,44.0719574 326.005957,46.3614043 326.02383,48.4870213 C326.042298,50.594766 327.259702,52.7930638 330.402851,52.7930638 C331.510936,52.7930638 332.764681,52.3388085 333.600511,51.5032766 L335.235532,53.1564681 Z M313.434553,54.7551489 L315.814553,54.7551489 L315.814553,42.0371915 L313.434553,42.0371915 L313.434553,54.7551489 Z M302.862766,42.0190213 L305.261234,42.0190213 L305.261234,54.7551489 L303.771277,54.7551489 L303.771277,54.7733191 L297.085234,46.1797021 L297.085234,54.7551489 L294.687064,54.7551489 L294.687064,42.0371915 L296.631277,42.0371915 L302.862766,49.9224681 L302.862766,42.0190213 Z" id="Logo_header_HOZ"></path>
        </g>
    </g>
</svg>