<?xml version="1.0" encoding="UTF-8"?>
<svg width="193px" height="56px" viewBox="0 0 193 56" version="1.1" xmlns="http://www.w3.org/2000/svg" xmlns:xlink="http://www.w3.org/1999/xlink">
    <defs></defs>
    <g id="Desktop" stroke="none" stroke-width="1" fill="none" fill-rule="evenodd">
        <g id="Home" transform="translate(-199.000000, -2086.000000)" fill="#FFFFFF">
            <g id="Footer" transform="translate(0.000000, 2056.000000)">
                <path d="M241.412553,58.1334468 L213.279404,30 L199,30 L199,85.6511915 L213.044681,85.6511915 L213.044681,81.1991915 L203.452298,81.1991915 L203.452298,34.452 L211.434383,34.452 L241.41166,64.4295745 L241.412553,58.1334468 Z M267.011106,30 L241.411957,30 L241.411957,34.452 L267.011106,34.452 C273.838043,34.452 279.372213,39.9858723 279.372213,46.8122128 C279.372213,51.2633191 277.011574,55.1529362 273.481489,57.3291915 C271.598043,58.4905957 269.387234,59.1724255 267.011106,59.1724255 C264.63617,59.1724255 262.425362,58.4905957 260.541915,57.3291915 C260.369447,57.2228511 260.209191,57.0998298 260.041787,56.9854468 L260.041787,57.3291915 L260.041787,62.1034894 C262.16383,63.0778298 264.522085,63.6247234 267.011106,63.6247234 C272.314426,63.6247234 277.036298,61.1642979 280.117489,57.3291915 C282.431957,54.4484681 283.823915,50.7950638 283.823915,46.8122128 C283.823915,37.5269362 276.296681,30 267.011106,30 L267.011106,30 Z M250.199489,66.9215745 L254.651191,71.3729787 L254.651191,71.3732766 L254.651191,77.6685106 L254.651191,77.6688085 L254.651191,85.6511915 L246.668809,85.6511915 L240.607106,85.6511915 L240.372085,85.6511915 L213.044681,58.3234894 L213.044681,52.0264681 L242.216809,81.1991915 L250.199489,81.1991915 L250.199489,73.2171064 L250.199489,66.9215745 Z M385.263149,75.1085957 L381.22966,75.1085957 L381.22966,72.9284681 L391.694809,72.9284681 L391.694809,75.1085957 L387.661319,75.1085957 L387.661319,85.6464255 L385.263149,85.6464255 L385.263149,75.1085957 Z M370.185447,75.5994894 L367.823617,81.013617 L372.547277,81.013617 L370.185447,75.5994894 Z M373.510298,83.2482553 L366.860298,83.2482553 L365.770383,85.6464255 L363.17234,85.6464255 L368.877191,72.9284681 L371.493404,72.9284681 L377.198553,85.6464255 L374.582043,85.6464255 L373.510298,83.2482553 Z M357.924128,84.0477447 C356.615872,85.3378298 354.926043,85.9374468 353.091149,85.9374468 C348.367191,85.9374468 346.368766,82.6852766 346.350298,79.3782979 C346.332128,76.0534468 348.494085,72.6740851 353.091149,72.6740851 C354.817021,72.6740851 356.452043,73.3282128 357.760298,74.6182979 L356.161617,76.1624681 C355.325787,75.3448085 354.199532,74.9635319 353.091149,74.9635319 C350.020383,74.9635319 348.694255,77.2526809 348.712426,79.3782979 C348.730298,81.4857447 349.947702,83.6843404 353.091149,83.6843404 C354.199532,83.6843404 355.452979,83.2300851 356.288511,82.3942553 L357.924128,84.0477447 Z M331.091191,75.1634043 L331.091191,79.2329362 L334.743106,79.2329362 C336.269404,79.2329362 336.923532,78.2157021 336.923532,77.1981702 C336.923532,76.1806383 336.251532,75.1634043 334.743106,75.1634043 L331.091191,75.1634043 Z M339.95766,85.6464255 L337.105234,85.6464255 L333.398809,81.3951915 L331.091191,81.3951915 L331.091191,85.6464255 L328.693319,85.6464255 L328.693319,72.9102979 C330.709915,72.9102979 332.726809,72.9284681 334.743106,72.9284681 C337.741191,72.9466383 339.321702,74.9450638 339.321702,77.1436596 C339.321702,78.888 338.522511,80.6502128 336.105872,81.1408085 L339.95766,85.4828936 L339.95766,85.6464255 Z M321.046638,85.6464255 L311.526043,85.6464255 L311.526043,72.9284681 L321.046638,72.9284681 L321.046638,75.2542553 L313.906043,75.2542553 L313.906043,78.1793617 L320.791957,78.1793617 L320.791957,80.414 L313.906043,80.414 L313.906043,83.2848936 L321.046638,83.2848936 L321.046638,85.6464255 Z M295.90383,79.7053617 L299.501234,79.7053617 C302.571404,79.7053617 302.553532,75.1997447 299.501234,75.1997447 L295.90383,75.1997447 L295.90383,79.7053617 Z M299.501234,81.9039574 L295.90383,81.9039574 L295.90383,85.6464255 L293.505362,85.6464255 L293.505362,72.9284681 C295.504085,72.9284681 297.502511,72.9102979 299.501234,72.9102979 C305.714851,72.9102979 305.733021,81.9039574 299.501234,81.9039574 L299.501234,81.9039574 Z M351.765915,52.1098723 L346.115277,58.1962979 L352.238043,64.6097872 L352.238043,64.7551489 L349.276596,64.7551489 L343.953021,59.1229787 L343.953021,64.7551489 L341.554851,64.7551489 L341.554851,52.0371915 L343.953021,52.0371915 L343.953021,57.4149787 L348.786,52.0371915 L351.765915,52.0371915 L351.765915,52.1098723 Z M334.235532,63.1564681 C332.927574,64.4462553 331.237745,65.0458723 329.402851,65.0458723 C324.678894,65.0458723 322.68017,61.7937021 322.662298,58.4870213 C322.64383,55.1621702 324.806085,51.7828085 329.402851,51.7828085 C331.128723,51.7828085 332.764043,52.4369362 334.072,53.7270213 L332.473319,55.2711915 C331.637191,54.4535319 330.510936,54.0719574 329.402851,54.0719574 C326.332085,54.0719574 325.005957,56.3614043 325.02383,58.4870213 C325.042298,60.594766 326.259702,62.7930638 329.402851,62.7930638 C330.510936,62.7930638 331.764681,62.3388085 332.600511,61.5032766 L334.235532,63.1564681 Z M312.434553,64.7551489 L314.814553,64.7551489 L314.814553,52.0371915 L312.434553,52.0371915 L312.434553,64.7551489 Z M301.862766,52.0190213 L304.261234,52.0190213 L304.261234,64.7551489 L302.771277,64.7551489 L302.771277,64.7733191 L296.085234,56.1797021 L296.085234,64.7551489 L293.687064,64.7551489 L293.687064,52.0371915 L295.631277,52.0371915 L301.862766,59.9224681 L301.862766,52.0190213 Z" id="Logo_footer_HOZ"></path>
            </g>
        </g>
    </g>
</svg>