<?xml version="1.0" encoding="UTF-8"?>
<svg width="250px" height="165px" viewBox="0 0 250 165" version="1.1" xmlns="http://www.w3.org/2000/svg" xmlns:xlink="http://www.w3.org/1999/xlink">
    <defs></defs>
    <g id="Desktop" stroke="none" stroke-width="1" fill="none" fill-rule="evenodd">
        <g id="Home-Fixed-1" transform="translate(-595.000000, -430.000000)" fill="#000000">
            <path d="M720.001756,512.917202 L637.085432,430 L595,430 L595,594.019757 L636.393635,594.019757 L636.393635,580.898457 L608.122178,580.898457 L608.122178,443.1213 L631.647633,443.1213 L719.999122,531.473666 L720.001756,512.917202 Z M795.447912,430 L720,430 L720,443.1213 L795.447912,443.1213 C815.568818,443.1213 831.879578,459.431182 831.879578,479.550333 C831.879578,492.668998 824.922111,504.132797 814.517955,510.546835 C808.966906,513.969821 802.45103,515.979366 795.447912,515.979366 C788.448305,515.979366 781.932429,513.969821 776.38138,510.546835 C775.873068,510.23342 775.40075,509.870841 774.907363,509.533722 L774.907363,510.546835 L774.907363,524.618037 C781.16162,527.489693 788.112064,529.101543 795.447912,529.101543 C811.078289,529.101543 824.994978,521.849975 834.076119,510.546835 C840.897509,502.056531 845,491.288918 845,479.550333 C845,452.184004 822.815118,430 795.447912,430 L795.447912,430 Z M745.899335,538.818293 L759.019757,551.937837 L759.019757,551.938715 L759.019757,570.492545 L759.019757,570.493423 L759.019757,594.019757 L735.493423,594.019757 L717.627877,594.019757 L716.935203,594.019757 L636.393635,513.477311 L636.393635,494.918214 L722.372123,580.898457 L745.899335,580.898457 L745.899335,557.373001 L745.899335,538.818293 Z" id="Logo_icon_home"></path>
        </g>
    </g>
</svg>