<?xml version="1.0" encoding="UTF-8"?>
<svg width="11px" height="20px" viewBox="0 0 11 20" version="1.1" xmlns="http://www.w3.org/2000/svg" xmlns:xlink="http://www.w3.org/1999/xlink">
    <defs></defs>
    <g id="Desktop" stroke="none" stroke-width="1" fill="none" fill-rule="evenodd">
        <g id="Home" transform="translate(-1230.000000, -2121.000000)" fill="#FEFEFE">
            <g id="Footer" transform="translate(0.000000, 2056.000000)">
                <g id="Group-5" transform="translate(1155.000000, 65.000000)">
                    <path d="M82.644261,0 C81.2577403,0 80.1485237,0.411020372 79.3148165,1.23216369 C78.4811092,2.05330701 78.0647043,3.20918963 78.0647043,4.69981154 L78.0647043,7.31939334 L75,7.31939334 L75,10.8776811 L78.0647043,10.8776811 L78.0647043,20 L81.7432469,20 L81.7432469,10.8776811 L84.7953872,10.8776811 L85.2647402,7.31939334 L81.7432469,7.31939334 L81.7432469,5.0480122 C81.7432469,4.47096832 81.8626043,4.03840976 82.1031141,3.75033653 C82.3436238,3.46136588 82.8084896,3.31688055 83.4977116,3.31688055 L85.3849951,3.31688055 L85.3849951,0.144485327 C84.7352598,0.0484609172 83.8216818,0 82.644261,0" id="Facebook"></path>
                </g>
            </g>
        </g>
    </g>
</svg>