<?xml version="1.0" encoding="UTF-8"?>
<svg width="20px" height="20px" viewBox="0 0 20 20" version="1.1" xmlns="http://www.w3.org/2000/svg" xmlns:xlink="http://www.w3.org/1999/xlink">
    <defs></defs>
    <g id="Desktop" stroke="none" stroke-width="1" fill="none" fill-rule="evenodd">
        <g id="Home" transform="translate(-1155.000000, -2121.000000)" fill="#FEFEFE">
            <g id="Footer" transform="translate(0.000000, 2056.000000)">
                <g id="Group-5" transform="translate(1155.000000, 65.000000)">
                    <path d="M10,13.3339817 C9.07933113,13.3339817 8.29476959,13.0082647 7.64339879,12.3578028 C6.992028,11.7063687 6.6663426,10.9207585 6.6663426,10.0000001 C6.6663426,9.08021404 6.992028,8.29460391 7.64339879,7.64316978 C8.29476959,6.99270793 9.07933113,6.66699086 10,6.66699086 C10.9196967,6.66699086 11.7052304,6.99270793 12.3566012,7.64316978 C13.007972,8.29460391 13.3336574,9.08021404 13.3336574,10.0000001 C13.3336574,10.9207585 13.007972,11.7063687 12.3566012,12.3578028 C11.7052304,13.0082647 10.9196967,13.3339817 10,13.3339817 M10,4.87019939 C8.5767062,4.87019939 7.36535096,5.36898404 6.36690647,6.36752562 C5.36943418,7.3660672 4.86972584,8.57656794 4.86972584,10.0000001 C4.86972584,11.4244046 5.36943418,12.6349054 6.36690647,13.633447 C7.36535096,14.6319885 8.5767062,15.1307732 10,15.1307732 C11.4232938,15.1307732 12.634649,14.6319885 13.6330935,13.633447 C14.6305658,12.6349054 15.1302742,11.4244046 15.1302742,10.0000001 C15.1302742,8.57656794 14.6305658,7.3660672 13.6330935,6.36752562 C12.634649,5.36898404 11.4232938,4.87019939 10,4.87019939 M15.3383239,3.46329611 C15.0087498,3.46329611 14.7268131,3.58094317 14.4925141,3.81526501 C14.2572429,4.04958684 14.1405794,4.33155087 14.1405794,4.66115709 C14.1405794,4.99173561 14.2572429,5.27369964 14.4925141,5.50802147 C14.7268131,5.7423433 15.0087498,5.85999036 15.3383239,5.85999036 C15.6678981,5.85999036 15.9508069,5.7423433 16.185106,5.50802147 C16.419405,5.27369964 16.5360684,4.99173561 16.5360684,4.66115709 C16.5360684,4.33155087 16.419405,4.04958684 16.185106,3.81526501 C15.9508069,3.58094317 15.6678981,3.46329611 15.3383239,3.46329611 M12.3702119,1.78998544 C12.6822866,1.79484689 13.1013027,1.80748666 13.6262882,1.82887703 C14.1512736,1.8512397 14.5984834,1.89402045 14.9669454,1.95916386 C15.3363795,2.02430727 15.6465098,2.10500732 15.8983084,2.20029172 C16.3319074,2.37433159 16.7139802,2.62615463 17.0445265,2.95576086 C17.3741007,3.28536709 17.6258993,3.66747696 17.79895,4.10111819 C17.8942252,4.35391353 17.9749174,4.66407396 18.0400544,5.03257178 C18.1051915,5.40204189 18.1489403,5.84832289 18.1703286,6.37433165 C18.1917169,6.89936811 18.2053276,7.318425 18.2092164,7.63053001 C18.2140774,7.94263502 18.2140774,8.4005835 18.2092164,9.00437544 C18.2053276,9.60816738 18.2033832,9.93971818 18.2033832,10.0000001 C18.2033832,10.0612544 18.2053276,10.3937775 18.2092164,10.9965971 C18.2140774,11.6003891 18.2140774,12.0583376 18.2092164,12.3704426 C18.2053276,12.6825476 18.1917169,13.1016045 18.1703286,13.6266409 C18.1489403,14.1526497 18.1051915,14.5989307 18.0400544,14.9684008 C17.9749174,15.3368986 17.8942252,15.6480313 17.79895,15.8988821 C17.6258993,16.3334956 17.3741007,16.7156055 17.0445265,17.0452117 C16.7139802,17.374818 16.3319074,17.626641 15.8983084,17.8006809 C15.6465098,17.8959653 15.3363795,17.9766653 14.9669454,18.0418087 C14.5984834,18.1059799 14.1512736,18.1497329 13.6262882,18.1711233 C13.1013027,18.1934859 12.6822866,18.2061257 12.3702119,18.2109871 C12.0571651,18.2148763 11.5992611,18.2148763 10.9965001,18.2109871 C10.3927669,18.2061257 10.0602761,18.2041811 10,18.2041811 C9.9387517,18.2041811 9.60723313,18.2061257 9.0034999,18.2109871 C8.40073887,18.2148763 7.94283492,18.2148763 7.62978806,18.2109871 C7.3177134,18.2061257 6.89869726,18.1934859 6.37371184,18.1711233 C5.84872642,18.1497329 5.40151662,18.1059799 5.03305464,18.0418087 C4.66362045,17.9766653 4.35349018,17.8959653 4.10169162,17.8006809 C3.66712036,17.626641 3.28601983,17.374818 2.95547346,17.0452117 C2.62589928,16.7156055 2.37410072,16.3334956 2.20104997,15.8988821 C2.10480264,15.6480313 2.02508264,15.3368986 1.95994556,14.9684008 C1.89480848,14.5989307 1.85105969,14.1526497 1.8296714,13.6266409 C1.8082831,13.1016045 1.79467237,12.6825476 1.79078359,12.3704426 C1.78592261,12.0583376 1.78592261,11.6003891 1.79078359,10.9965971 C1.79467237,10.3937775 1.79661676,10.0612544 1.79661676,10.0000001 C1.79661676,9.93971818 1.79467237,9.60816738 1.79078359,9.00437544 C1.78592261,8.4005835 1.78592261,7.94263502 1.79078359,7.63053001 C1.79467237,7.318425 1.8082831,6.89936811 1.8296714,6.37433165 C1.85105969,5.84832289 1.89480848,5.40204189 1.95994556,5.03257178 C2.02508264,4.66407396 2.10480264,4.35391353 2.20104997,4.10111819 C2.37410072,3.66747696 2.62589928,3.28536709 2.95547346,2.95576086 C3.28601983,2.62615463 3.66712036,2.37433159 4.10169162,2.20029172 C4.35349018,2.10500732 4.66362045,2.02430727 5.03305464,1.95916386 C5.40151662,1.89402045 5.84872642,1.8512397 6.37371184,1.82887703 C6.89869726,1.80748666 7.3177134,1.79484689 7.62978806,1.78998544 C7.94283492,1.78609628 8.40073887,1.78609628 9.0034999,1.78998544 C9.60723313,1.79484689 9.9387517,1.79679147 10,1.79679147 C10.0602761,1.79679147 10.3927669,1.79484689 10.9965001,1.78998544 C11.5992611,1.78609628 12.0571651,1.78609628 12.3702119,1.78998544 M19.9348629,5.87263013 C19.8473654,4.06708805 19.3097414,2.66893538 18.3200467,1.67914441 C17.3303519,0.690325727 15.9333074,0.151677202 14.1279409,0.0651434137 C13.3637955,0.0213903746 11.987167,0 10,0 C8.01186078,0 6.63620455,0.0213903746 5.87205911,0.0651434137 C4.06669259,0.151677202 2.66964807,0.690325727 1.67995333,1.67914441 C0.690258604,2.66893538 0.151662454,4.06708805 0.0651370795,5.87263013 C0.0213882948,6.63684988 0,8.01263989 0,10.0000001 C0,11.9883327 0.0213882948,13.3641227 0.0651370795,14.1283425 C0.151662454,15.9338845 0.690258604,17.3320372 1.67995333,18.3208559 C2.66964807,19.3106469 4.06669259,19.8492954 5.87205911,19.9358292 C6.63620455,19.9795822 8.01186078,20.0009726 10,20.0009726 C11.987167,20.0009726 13.3637955,19.9795822 14.1279409,19.9358292 C15.9333074,19.8492954 17.3303519,19.3106469 18.3200467,18.3208559 C19.3097414,17.3320372 19.8473654,15.9338845 19.9348629,14.1283425 C19.9776395,13.3641227 20,11.9883327 20,10.0000001 C20,8.01263989 19.9776395,6.63684988 19.9348629,5.87263013" id="Instagram"></path>
                </g>
            </g>
        </g>
    </g>
</svg>