<?xml version="1.0" encoding="UTF-8"?>
<svg width="25px" height="20px" viewBox="0 0 25 20" version="1.1" xmlns="http://www.w3.org/2000/svg" xmlns:xlink="http://www.w3.org/1999/xlink">
    <defs></defs>
    <g id="Desktop" stroke="none" stroke-width="1" fill="none" fill-rule="evenodd">
        <g id="Home" transform="translate(-1190.000000, -2121.000000)" fill="#FEFEFE">
            <g id="Footer" transform="translate(0.000000, 2056.000000)">
                <g id="Group-5" transform="translate(1155.000000, 65.000000)">
                    <path d="M56.7184857,3.15580703 C57.8116432,2.50014583 58.5513037,1.57265356 58.9374672,0.374496879 C57.9376422,0.968325264 56.8689844,1.37432188 55.7338272,1.59365339 C54.7340022,0.53082891 53.5043458,0 52.0471913,0 C50.6507029,0 49.4607128,0.492329231 48.4760544,1.47582103 C47.4925626,2.4604795 47.0002333,3.65046958 47.0002333,5.04695794 C47.0002333,5.42145482 47.0410663,5.80645161 47.1250656,6.20311497 C45.0624161,6.09811585 43.1269323,5.58012017 41.3197807,4.64796127 C39.5126291,3.71580237 37.9784752,2.47331272 36.7184857,0.921658986 C36.2599895,1.70215248 36.0313247,2.55147874 36.0313247,3.4684711 C36.0313247,4.33296389 36.234323,5.13562387 36.6403197,5.87411772 C37.0463163,6.61377822 37.5934784,7.21343989 38.2806393,7.67193607 C37.4686461,7.64043633 36.7079858,7.42693811 35.999825,7.03027475 L35.999825,7.09327422 C35.999825,8.31243073 36.3824885,9.38225515 37.1478154,10.3039141 C37.914309,11.2255731 38.880301,11.8065683 40.0469579,12.0468996 C39.6094616,12.161232 39.1661319,12.2183982 38.7181357,12.2183982 C38.4264714,12.2183982 38.1091408,12.1927317 37.764977,12.1402322 C38.0881409,13.1505571 38.6819693,13.9812168 39.5464621,14.6322114 C40.4109549,15.283206 41.3909467,15.6192032 42.4841043,15.640203 C40.6512862,17.0775244 38.5618037,17.796185 36.2191565,17.796185 C35.7711602,17.796185 35.363997,17.7751852 35,17.7343522 C37.3438138,19.2440063 39.9267923,20 42.7501021,20 C44.5409205,20 46.2232398,19.7153357 47.79706,19.1483404 C49.3697136,18.5801785 50.7137024,17.8195182 51.8278598,16.8663594 C52.9420171,15.9132007 53.9033425,14.8177099 54.7106691,13.5775535 C55.5179957,12.3385638 56.118824,11.0435746 56.5154874,9.69491921 C56.9109841,8.34626378 57.1093158,6.99410838 57.1093158,5.63961967 C57.1093158,5.34912209 57.1034825,5.12979059 57.0929826,4.98395847 C58.0834743,4.26529779 58.9269673,3.39497171 59.6246281,2.37414688 C58.6563029,2.79181007 57.6868109,3.05197457 56.7184857,3.15580703" id="Twitter"></path>
                </g>
            </g>
        </g>
    </g>
</svg>